<svg width="240" height="104" viewBox="0 0 240 104" fill="none" xmlns="http://www.w3.org/2000/svg">
<rect width="240" height="104" rx="4" fill="white"/>
<g clip-path="url(#clip0_9621_354)">
<path d="M24 16C20.1344 16 17 19.1344 17 23C17 26.8656 20.1344 30 24 30C27.8656 30 31 26.8656 31 23C31 19.1344 27.8656 16 24 16ZM23.5 19.625C23.5 19.5563 23.5563 19.5 23.625 19.5H24.375C24.4437 19.5 24.5 19.5563 24.5 19.625V23.875C24.5 23.9437 24.4437 24 24.375 24H23.625C23.5563 24 23.5 23.9437 23.5 23.875V19.625ZM24 26.5C23.8037 26.496 23.6169 26.4152 23.4795 26.275C23.3421 26.1348 23.2652 25.9463 23.2652 25.75C23.2652 25.5537 23.3421 25.3652 23.4795 25.225C23.6169 25.0848 23.8037 25.004 24 25C24.1963 25.004 24.3831 25.0848 24.5205 25.225C24.6579 25.3652 24.7348 25.5537 24.7348 25.75C24.7348 25.9463 24.6579 26.1348 24.5205 26.275C24.3831 26.4152 24.1963 26.496 24 26.5Z" fill="#FAAD14"/>
<path d="M46.6514 25.4023H42.4814L41.5449 28H40.1914L43.9922 18.0469H45.1406L48.9482 28H47.6016L46.6514 25.4023ZM42.8779 24.3223H46.2617L44.5664 19.667L42.8779 24.3223ZM53.665 21.7383C53.4736 21.7064 53.2663 21.6904 53.043 21.6904C52.2135 21.6904 51.6507 22.0436 51.3545 22.75V28H50.0898V20.6035H51.3203L51.3408 21.458C51.7555 20.7972 52.3434 20.4668 53.1045 20.4668C53.3506 20.4668 53.5374 20.4987 53.665 20.5625V21.7383ZM57.7666 28.1367C56.764 28.1367 55.9482 27.8086 55.3193 27.1523C54.6904 26.4915 54.376 25.6097 54.376 24.5068V24.2744C54.376 23.5407 54.515 22.8867 54.793 22.3125C55.0755 21.7337 55.4674 21.2826 55.9688 20.959C56.4746 20.6309 57.0215 20.4668 57.6094 20.4668C58.571 20.4668 59.3184 20.7835 59.8516 21.417C60.3848 22.0505 60.6514 22.9574 60.6514 24.1377V24.6641H55.6406C55.6589 25.3932 55.8708 25.9834 56.2764 26.4346C56.6865 26.8812 57.2061 27.1045 57.835 27.1045C58.2816 27.1045 58.6598 27.0133 58.9697 26.8311C59.2796 26.6488 59.5508 26.4072 59.7832 26.1064L60.5557 26.708C59.9359 27.6605 59.0062 28.1367 57.7666 28.1367ZM57.6094 21.5059C57.099 21.5059 56.6706 21.6927 56.3242 22.0664C55.9779 22.4355 55.7637 22.9551 55.6816 23.625H59.3867V23.5293C59.3503 22.8867 59.1771 22.39 58.8672 22.0391C58.5573 21.6836 58.138 21.5059 57.6094 21.5059ZM68.0137 26.1475L69.7363 20.6035H71.0898L68.1162 29.1416C67.6559 30.3721 66.9245 30.9873 65.9219 30.9873L65.6826 30.9668L65.2109 30.8779V29.8525L65.5527 29.8799C65.9811 29.8799 66.3138 29.7933 66.5508 29.6201C66.7923 29.4469 66.9906 29.1302 67.1455 28.6699L67.4258 27.918L64.7871 20.6035H66.168L68.0137 26.1475ZM71.7803 24.2334C71.7803 23.5088 71.9215 22.8571 72.2041 22.2783C72.4912 21.6995 72.8877 21.2529 73.3936 20.9385C73.904 20.624 74.485 20.4668 75.1367 20.4668C76.1439 20.4668 76.9574 20.8154 77.5771 21.5127C78.2015 22.21 78.5137 23.1374 78.5137 24.2949V24.3838C78.5137 25.1038 78.3747 25.751 78.0967 26.3252C77.8232 26.8949 77.429 27.3392 76.9141 27.6582C76.4036 27.9772 75.8158 28.1367 75.1504 28.1367C74.1478 28.1367 73.3343 27.7881 72.71 27.0908C72.0902 26.3936 71.7803 25.4707 71.7803 24.3223V24.2334ZM73.0518 24.3838C73.0518 25.2041 73.2409 25.8626 73.6191 26.3594C74.002 26.8561 74.5124 27.1045 75.1504 27.1045C75.793 27.1045 76.3034 26.8538 76.6816 26.3525C77.0599 25.8467 77.249 25.1403 77.249 24.2334C77.249 23.4222 77.0553 22.766 76.668 22.2646C76.2852 21.7588 75.7747 21.5059 75.1367 21.5059C74.5124 21.5059 74.0088 21.7542 73.626 22.251C73.2432 22.7477 73.0518 23.4587 73.0518 24.3838ZM84.666 27.2686C84.1738 27.8473 83.4515 28.1367 82.499 28.1367C81.7106 28.1367 81.109 27.9089 80.6943 27.4531C80.2842 26.9928 80.0768 26.3138 80.0723 25.416V20.6035H81.3369V25.3818C81.3369 26.5029 81.7926 27.0635 82.7041 27.0635C83.6702 27.0635 84.3128 26.7035 84.6318 25.9834V20.6035H85.8965V28H84.6934L84.666 27.2686ZM95.6035 26.0381C95.6035 25.6963 95.4736 25.432 95.2139 25.2451C94.9587 25.0537 94.5098 24.8896 93.8672 24.7529C93.2292 24.6162 92.721 24.4521 92.3428 24.2607C91.9691 24.0693 91.6911 23.8415 91.5088 23.5771C91.3311 23.3128 91.2422 22.9984 91.2422 22.6338C91.2422 22.0277 91.4974 21.515 92.0078 21.0957C92.5228 20.6764 93.179 20.4668 93.9766 20.4668C94.8151 20.4668 95.4941 20.6833 96.0137 21.1162C96.5378 21.5492 96.7998 22.1029 96.7998 22.7773H95.5283C95.5283 22.431 95.3802 22.1325 95.084 21.8818C94.7923 21.6312 94.4232 21.5059 93.9766 21.5059C93.5163 21.5059 93.1562 21.6061 92.8965 21.8066C92.6367 22.0072 92.5068 22.2692 92.5068 22.5928C92.5068 22.8981 92.6276 23.1283 92.8691 23.2832C93.1107 23.4382 93.5459 23.5863 94.1748 23.7275C94.8083 23.8688 95.321 24.0374 95.7129 24.2334C96.1048 24.4294 96.3942 24.6663 96.5811 24.9443C96.7725 25.2178 96.8682 25.5527 96.8682 25.9492C96.8682 26.61 96.6038 27.141 96.0752 27.542C95.5465 27.9385 94.8607 28.1367 94.0176 28.1367C93.4251 28.1367 92.901 28.0319 92.4453 27.8223C91.9896 27.6126 91.6318 27.321 91.3721 26.9473C91.1169 26.569 90.9893 26.1611 90.9893 25.7236H92.2539C92.2767 26.1475 92.4453 26.4847 92.7598 26.7354C93.0788 26.9814 93.498 27.1045 94.0176 27.1045C94.4961 27.1045 94.8789 27.0088 95.166 26.8174C95.4577 26.6214 95.6035 26.3617 95.6035 26.0381ZM103.082 27.2686C102.59 27.8473 101.868 28.1367 100.915 28.1367C100.127 28.1367 99.5251 27.9089 99.1104 27.4531C98.7002 26.9928 98.4928 26.3138 98.4883 25.416V20.6035H99.7529V25.3818C99.7529 26.5029 100.209 27.0635 101.12 27.0635C102.086 27.0635 102.729 26.7035 103.048 25.9834V20.6035H104.312V28H103.109L103.082 27.2686ZM109.815 21.7383C109.624 21.7064 109.417 21.6904 109.193 21.6904C108.364 21.6904 107.801 22.0436 107.505 22.75V28H106.24V20.6035H107.471L107.491 21.458C107.906 20.7972 108.494 20.4668 109.255 20.4668C109.501 20.4668 109.688 20.4987 109.815 20.5625V21.7383ZM113.917 28.1367C112.914 28.1367 112.099 27.8086 111.47 27.1523C110.841 26.4915 110.526 25.6097 110.526 24.5068V24.2744C110.526 23.5407 110.665 22.8867 110.943 22.3125C111.226 21.7337 111.618 21.2826 112.119 20.959C112.625 20.6309 113.172 20.4668 113.76 20.4668C114.721 20.4668 115.469 20.7835 116.002 21.417C116.535 22.0505 116.802 22.9574 116.802 24.1377V24.6641H111.791C111.809 25.3932 112.021 25.9834 112.427 26.4346C112.837 26.8812 113.356 27.1045 113.985 27.1045C114.432 27.1045 114.81 27.0133 115.12 26.8311C115.43 26.6488 115.701 26.4072 115.934 26.1064L116.706 26.708C116.086 27.6605 115.157 28.1367 113.917 28.1367ZM113.76 21.5059C113.249 21.5059 112.821 21.6927 112.475 22.0664C112.128 22.4355 111.914 22.9551 111.832 23.625H115.537V23.5293C115.501 22.8867 115.327 22.39 115.018 22.0391C114.708 21.6836 114.288 21.5059 113.76 21.5059ZM123.46 18.8125V20.6035H124.841V21.5811H123.46V26.168C123.46 26.4642 123.521 26.6875 123.645 26.8379C123.768 26.9837 123.977 27.0566 124.273 27.0566C124.419 27.0566 124.62 27.0293 124.875 26.9746V28C124.542 28.0911 124.219 28.1367 123.904 28.1367C123.339 28.1367 122.913 27.9658 122.626 27.624C122.339 27.2822 122.195 26.7969 122.195 26.168V21.5811H120.849V20.6035H122.195V18.8125H123.46ZM125.853 24.2334C125.853 23.5088 125.994 22.8571 126.276 22.2783C126.563 21.6995 126.96 21.2529 127.466 20.9385C127.976 20.624 128.557 20.4668 129.209 20.4668C130.216 20.4668 131.03 20.8154 131.649 21.5127C132.274 22.21 132.586 23.1374 132.586 24.2949V24.3838C132.586 25.1038 132.447 25.751 132.169 26.3252C131.896 26.8949 131.501 27.3392 130.986 27.6582C130.476 27.9772 129.888 28.1367 129.223 28.1367C128.22 28.1367 127.407 27.7881 126.782 27.0908C126.162 26.3936 125.853 25.4707 125.853 24.3223V24.2334ZM127.124 24.3838C127.124 25.2041 127.313 25.8626 127.691 26.3594C128.074 26.8561 128.585 27.1045 129.223 27.1045C129.865 27.1045 130.376 26.8538 130.754 26.3525C131.132 25.8467 131.321 25.1403 131.321 24.2334C131.321 23.4222 131.128 22.766 130.74 22.2646C130.357 21.7588 129.847 21.5059 129.209 21.5059C128.585 21.5059 128.081 21.7542 127.698 22.251C127.315 22.7477 127.124 23.4587 127.124 24.3838ZM137.337 24.2402C137.337 23.1055 137.606 22.194 138.144 21.5059C138.681 20.8132 139.385 20.4668 140.256 20.4668C141.122 20.4668 141.808 20.763 142.313 21.3555V17.5H143.578V28H142.416L142.354 27.207C141.849 27.8268 141.145 28.1367 140.242 28.1367C139.385 28.1367 138.686 27.7858 138.144 27.084C137.606 26.3822 137.337 25.4661 137.337 24.3359V24.2402ZM138.602 24.3838C138.602 25.2223 138.775 25.8786 139.121 26.3525C139.467 26.8265 139.946 27.0635 140.557 27.0635C141.359 27.0635 141.944 26.7035 142.313 25.9834V22.5859C141.935 21.8887 141.354 21.54 140.57 21.54C139.951 21.54 139.467 21.7793 139.121 22.2578C138.775 22.7363 138.602 23.445 138.602 24.3838ZM148.616 28.1367C147.614 28.1367 146.798 27.8086 146.169 27.1523C145.54 26.4915 145.226 25.6097 145.226 24.5068V24.2744C145.226 23.5407 145.365 22.8867 145.643 22.3125C145.925 21.7337 146.317 21.2826 146.818 20.959C147.324 20.6309 147.871 20.4668 148.459 20.4668C149.421 20.4668 150.168 20.7835 150.701 21.417C151.234 22.0505 151.501 22.9574 151.501 24.1377V24.6641H146.49C146.508 25.3932 146.72 25.9834 147.126 26.4346C147.536 26.8812 148.056 27.1045 148.685 27.1045C149.131 27.1045 149.509 27.0133 149.819 26.8311C150.129 26.6488 150.4 26.4072 150.633 26.1064L151.405 26.708C150.785 27.6605 149.856 28.1367 148.616 28.1367ZM148.459 21.5059C147.949 21.5059 147.52 21.6927 147.174 22.0664C146.827 22.4355 146.613 22.9551 146.531 23.625H150.236V23.5293C150.2 22.8867 150.027 22.39 149.717 22.0391C149.407 21.6836 148.988 21.5059 148.459 21.5059ZM154.345 28H153.08V17.5H154.345V28ZM159.444 28.1367C158.442 28.1367 157.626 27.8086 156.997 27.1523C156.368 26.4915 156.054 25.6097 156.054 24.5068V24.2744C156.054 23.5407 156.193 22.8867 156.471 22.3125C156.753 21.7337 157.145 21.2826 157.646 20.959C158.152 20.6309 158.699 20.4668 159.287 20.4668C160.249 20.4668 160.996 20.7835 161.529 21.417C162.062 22.0505 162.329 22.9574 162.329 24.1377V24.6641H157.318C157.337 25.3932 157.549 25.9834 157.954 26.4346C158.364 26.8812 158.884 27.1045 159.513 27.1045C159.959 27.1045 160.338 27.0133 160.647 26.8311C160.957 26.6488 161.229 26.4072 161.461 26.1064L162.233 26.708C161.614 27.6605 160.684 28.1367 159.444 28.1367ZM159.287 21.5059C158.777 21.5059 158.348 21.6927 158.002 22.0664C157.656 22.4355 157.441 22.9551 157.359 23.625H161.064V23.5293C161.028 22.8867 160.855 22.39 160.545 22.0391C160.235 21.6836 159.816 21.5059 159.287 21.5059ZM165.515 18.8125V20.6035H166.896V21.5811H165.515V26.168C165.515 26.4642 165.576 26.6875 165.699 26.8379C165.822 26.9837 166.032 27.0566 166.328 27.0566C166.474 27.0566 166.674 27.0293 166.93 26.9746V28C166.597 28.0911 166.273 28.1367 165.959 28.1367C165.394 28.1367 164.968 27.9658 164.681 27.624C164.394 27.2822 164.25 26.7969 164.25 26.168V21.5811H162.903V20.6035H164.25V18.8125H165.515ZM171.448 28.1367C170.446 28.1367 169.63 27.8086 169.001 27.1523C168.372 26.4915 168.058 25.6097 168.058 24.5068V24.2744C168.058 23.5407 168.197 22.8867 168.475 22.3125C168.757 21.7337 169.149 21.2826 169.65 20.959C170.156 20.6309 170.703 20.4668 171.291 20.4668C172.253 20.4668 173 20.7835 173.533 21.417C174.066 22.0505 174.333 22.9574 174.333 24.1377V24.6641H169.322C169.34 25.3932 169.552 25.9834 169.958 26.4346C170.368 26.8812 170.888 27.1045 171.517 27.1045C171.963 27.1045 172.341 27.0133 172.651 26.8311C172.961 26.6488 173.232 26.4072 173.465 26.1064L174.237 26.708C173.618 27.6605 172.688 28.1367 171.448 28.1367ZM171.291 21.5059C170.781 21.5059 170.352 21.6927 170.006 22.0664C169.66 22.4355 169.445 22.9551 169.363 23.625H173.068V23.5293C173.032 22.8867 172.859 22.39 172.549 22.0391C172.239 21.6836 171.82 21.5059 171.291 21.5059ZM180.991 18.8125V20.6035H182.372V21.5811H180.991V26.168C180.991 26.4642 181.053 26.6875 181.176 26.8379C181.299 26.9837 181.508 27.0566 181.805 27.0566C181.951 27.0566 182.151 27.0293 182.406 26.9746V28C182.074 28.0911 181.75 28.1367 181.436 28.1367C180.87 28.1367 180.444 27.9658 180.157 27.624C179.87 27.2822 179.727 26.7969 179.727 26.168V21.5811H178.38V20.6035H179.727V18.8125H180.991ZM185.12 21.499C185.681 20.8109 186.41 20.4668 187.308 20.4668C188.871 20.4668 189.659 21.3486 189.673 23.1123V28H188.408V23.1055C188.404 22.5723 188.281 22.1781 188.039 21.9229C187.802 21.6676 187.431 21.54 186.925 21.54C186.515 21.54 186.155 21.6494 185.845 21.8682C185.535 22.0869 185.293 22.374 185.12 22.7295V28H183.855V17.5H185.12V21.499ZM192.94 28H191.676V20.6035H192.94V28ZM191.573 18.6416C191.573 18.4365 191.635 18.2633 191.758 18.1221C191.885 17.9808 192.072 17.9102 192.318 17.9102C192.564 17.9102 192.751 17.9808 192.879 18.1221C193.007 18.2633 193.07 18.4365 193.07 18.6416C193.07 18.8467 193.007 19.0176 192.879 19.1543C192.751 19.291 192.564 19.3594 192.318 19.3594C192.072 19.3594 191.885 19.291 191.758 19.1543C191.635 19.0176 191.573 18.8467 191.573 18.6416ZM199.277 26.0381C199.277 25.6963 199.147 25.432 198.888 25.2451C198.632 25.0537 198.184 24.8896 197.541 24.7529C196.903 24.6162 196.395 24.4521 196.017 24.2607C195.643 24.0693 195.365 23.8415 195.183 23.5771C195.005 23.3128 194.916 22.9984 194.916 22.6338C194.916 22.0277 195.171 21.515 195.682 21.0957C196.197 20.6764 196.853 20.4668 197.65 20.4668C198.489 20.4668 199.168 20.6833 199.688 21.1162C200.212 21.5492 200.474 22.1029 200.474 22.7773H199.202C199.202 22.431 199.054 22.1325 198.758 21.8818C198.466 21.6312 198.097 21.5059 197.65 21.5059C197.19 21.5059 196.83 21.6061 196.57 21.8066C196.311 22.0072 196.181 22.2692 196.181 22.5928C196.181 22.8981 196.301 23.1283 196.543 23.2832C196.785 23.4382 197.22 23.5863 197.849 23.7275C198.482 23.8688 198.995 24.0374 199.387 24.2334C199.779 24.4294 200.068 24.6663 200.255 24.9443C200.446 25.2178 200.542 25.5527 200.542 25.9492C200.542 26.61 200.278 27.141 199.749 27.542C199.22 27.9385 198.535 28.1367 197.691 28.1367C197.099 28.1367 196.575 28.0319 196.119 27.8223C195.663 27.6126 195.306 27.321 195.046 26.9473C194.791 26.569 194.663 26.1611 194.663 25.7236H195.928C195.951 26.1475 196.119 26.4847 196.434 26.7354C196.753 26.9814 197.172 27.1045 197.691 27.1045C198.17 27.1045 198.553 27.0088 198.84 26.8174C199.132 26.6214 199.277 26.3617 199.277 26.0381ZM45.5234 50C45.4505 49.8542 45.3913 49.5944 45.3457 49.2207C44.7578 49.8314 44.056 50.1367 43.2402 50.1367C42.5111 50.1367 41.9118 49.9316 41.4424 49.5215C40.9775 49.1068 40.7451 48.5827 40.7451 47.9492C40.7451 47.179 41.0368 46.582 41.6201 46.1582C42.208 45.7298 43.0329 45.5156 44.0947 45.5156H45.3252V44.9346C45.3252 44.4925 45.193 44.1416 44.9287 43.8818C44.6644 43.6175 44.2747 43.4854 43.7598 43.4854C43.3086 43.4854 42.9303 43.5993 42.625 43.8271C42.3197 44.055 42.167 44.3307 42.167 44.6543H40.8955C40.8955 44.2852 41.0254 43.9297 41.2852 43.5879C41.5495 43.2415 41.9049 42.9681 42.3516 42.7676C42.8027 42.5671 43.2972 42.4668 43.835 42.4668C44.6872 42.4668 45.3548 42.681 45.8379 43.1094C46.321 43.5332 46.5716 44.1188 46.5898 44.8662V48.2705C46.5898 48.9495 46.6764 49.4896 46.8496 49.8906V50H45.5234ZM43.4248 49.0361C43.8213 49.0361 44.1973 48.9336 44.5527 48.7285C44.9082 48.5234 45.1657 48.2568 45.3252 47.9287V46.4111H44.334C42.7845 46.4111 42.0098 46.8646 42.0098 47.7715C42.0098 48.168 42.1419 48.4779 42.4062 48.7012C42.6706 48.9245 43.0101 49.0361 43.4248 49.0361ZM52.1475 43.7383C51.9561 43.7064 51.7487 43.6904 51.5254 43.6904C50.696 43.6904 50.1331 44.0436 49.8369 44.75V50H48.5723V42.6035H49.8027L49.8232 43.458C50.238 42.7972 50.8258 42.4668 51.5869 42.4668C51.833 42.4668 52.0199 42.4987 52.1475 42.5625V43.7383ZM55.374 40.8125V42.6035H56.7549V43.5811H55.374V48.168C55.374 48.4642 55.4355 48.6875 55.5586 48.8379C55.6816 48.9837 55.8913 49.0566 56.1875 49.0566C56.3333 49.0566 56.5339 49.0293 56.7891 48.9746V50C56.4564 50.0911 56.1328 50.1367 55.8184 50.1367C55.2533 50.1367 54.8271 49.9658 54.54 49.624C54.2529 49.2822 54.1094 48.7969 54.1094 48.168V43.5811H52.7627V42.6035H54.1094V40.8125H55.374ZM59.6123 50H58.3477V42.6035H59.6123V50ZM58.2451 40.6416C58.2451 40.4365 58.3066 40.2633 58.4297 40.1221C58.5573 39.9808 58.7441 39.9102 58.9902 39.9102C59.2363 39.9102 59.4232 39.9808 59.5508 40.1221C59.6784 40.2633 59.7422 40.4365 59.7422 40.6416C59.7422 40.8467 59.6784 41.0176 59.5508 41.1543C59.4232 41.291 59.2363 41.3594 58.9902 41.3594C58.7441 41.3594 58.5573 41.291 58.4297 41.1543C58.3066 41.0176 58.2451 40.8467 58.2451 40.6416ZM64.6094 49.1045C65.0605 49.1045 65.4548 48.9678 65.792 48.6943C66.1292 48.4209 66.3161 48.0791 66.3525 47.6689H67.5488C67.526 48.0928 67.3802 48.4961 67.1113 48.8789C66.8424 49.2617 66.4824 49.5671 66.0312 49.7949C65.5846 50.0228 65.1107 50.1367 64.6094 50.1367C63.6022 50.1367 62.8001 49.8018 62.2031 49.1318C61.6107 48.4574 61.3145 47.5368 61.3145 46.3701V46.1582C61.3145 45.4382 61.4466 44.7979 61.7109 44.2373C61.9753 43.6768 62.3535 43.2415 62.8457 42.9316C63.3424 42.6217 63.9281 42.4668 64.6025 42.4668C65.432 42.4668 66.1201 42.7152 66.667 43.2119C67.2184 43.7087 67.5124 44.3535 67.5488 45.1465H66.3525C66.3161 44.668 66.1338 44.276 65.8057 43.9707C65.4821 43.6608 65.0811 43.5059 64.6025 43.5059C63.96 43.5059 63.4609 43.7383 63.1055 44.2031C62.7546 44.6634 62.5791 45.3311 62.5791 46.2061V46.4453C62.5791 47.2975 62.7546 47.9538 63.1055 48.4141C63.4564 48.8743 63.9577 49.1045 64.6094 49.1045ZM70.3447 50H69.0801V39.5H70.3447V50ZM75.4443 50.1367C74.4417 50.1367 73.626 49.8086 72.9971 49.1523C72.3682 48.4915 72.0537 47.6097 72.0537 46.5068V46.2744C72.0537 45.5407 72.1927 44.8867 72.4707 44.3125C72.7533 43.7337 73.1452 43.2826 73.6465 42.959C74.1523 42.6309 74.6992 42.4668 75.2871 42.4668C76.2487 42.4668 76.9961 42.7835 77.5293 43.417C78.0625 44.0505 78.3291 44.9574 78.3291 46.1377V46.6641H73.3184C73.3366 47.3932 73.5485 47.9834 73.9541 48.4346C74.3643 48.8812 74.8838 49.1045 75.5127 49.1045C75.9593 49.1045 76.3376 49.0133 76.6475 48.8311C76.9574 48.6488 77.2285 48.4072 77.4609 48.1064L78.2334 48.708C77.6136 49.6605 76.6839 50.1367 75.4443 50.1367ZM75.2871 43.5059C74.7767 43.5059 74.3483 43.6927 74.002 44.0664C73.6556 44.4355 73.4414 44.9551 73.3594 45.625H77.0645V45.5293C77.028 44.8867 76.8548 44.39 76.5449 44.0391C76.235 43.6836 75.8158 43.5059 75.2871 43.5059ZM81.2822 47.1973C81.2913 46.6549 81.3529 46.2266 81.4668 45.9121C81.5807 45.5977 81.8132 45.249 82.1641 44.8662L83.0596 43.9434C83.4424 43.5104 83.6338 43.0456 83.6338 42.5488C83.6338 42.0703 83.5085 41.6966 83.2578 41.4277C83.0072 41.1543 82.6426 41.0176 82.1641 41.0176C81.6992 41.0176 81.3255 41.1406 81.043 41.3867C80.7604 41.6328 80.6191 41.9632 80.6191 42.3779H79.3545C79.3636 41.6396 79.6257 41.0449 80.1406 40.5938C80.6602 40.138 81.3346 39.9102 82.1641 39.9102C83.0254 39.9102 83.6953 40.1426 84.1738 40.6074C84.6569 41.0677 84.8984 41.7012 84.8984 42.5078C84.8984 43.3053 84.5293 44.0915 83.791 44.8662L83.0459 45.6045C82.7132 45.9736 82.5469 46.5046 82.5469 47.1973H81.2822ZM81.2275 49.3643C81.2275 49.1592 81.2891 48.9883 81.4121 48.8516C81.5397 48.7103 81.7266 48.6396 81.9727 48.6396C82.2188 48.6396 82.4056 48.7103 82.5332 48.8516C82.6608 48.9883 82.7246 49.1592 82.7246 49.3643C82.7246 49.5693 82.6608 49.7402 82.5332 49.877C82.4056 50.0091 82.2188 50.0752 81.9727 50.0752C81.7266 50.0752 81.5397 50.0091 81.4121 49.877C81.2891 49.7402 81.2275 49.5693 81.2275 49.3643Z" fill="#595959"/>
</g>
<g clip-path="url(#clip1_9621_354)">
<rect x="143.5" y="68.5" width="33" height="23" rx="3.5" fill="white"/>
<g clip-path="url(#clip2_9621_354)">
<path d="M159.822 85H158.503L153.492 77.3301V85H152.173V75.0469H153.492L158.517 82.751V75.0469H159.822V85ZM161.62 81.2334C161.62 80.5088 161.761 79.8571 162.044 79.2783C162.331 78.6995 162.728 78.2529 163.233 77.9385C163.744 77.624 164.325 77.4668 164.977 77.4668C165.984 77.4668 166.797 77.8154 167.417 78.5127C168.041 79.21 168.354 80.1374 168.354 81.2949V81.3838C168.354 82.1038 168.215 82.751 167.937 83.3252C167.663 83.8949 167.269 84.3392 166.754 84.6582C166.243 84.9772 165.656 85.1367 164.99 85.1367C163.988 85.1367 163.174 84.7881 162.55 84.0908C161.93 83.3936 161.62 82.4707 161.62 81.3223V81.2334ZM162.892 81.3838C162.892 82.2041 163.081 82.8626 163.459 83.3594C163.842 83.8561 164.352 84.1045 164.99 84.1045C165.633 84.1045 166.143 83.8538 166.521 83.3525C166.9 82.8467 167.089 82.1403 167.089 81.2334C167.089 80.4222 166.895 79.766 166.508 79.2646C166.125 78.7588 165.615 78.5059 164.977 78.5059C164.352 78.5059 163.849 78.7542 163.466 79.251C163.083 79.7477 162.892 80.4587 162.892 81.3838Z" fill="#595959"/>
</g>
<rect x="143.5" y="68.5" width="33" height="23" rx="3.5" stroke="#D9D9D9"/>
<rect x="185" y="68" width="39" height="24" rx="4" fill="#1890FF"/>
<g clip-path="url(#clip3_9621_354)">
<path d="M197.391 80.0439L199.988 75.0469H201.479L198.047 81.2881V85H196.734V81.2881L193.303 75.0469H194.807L197.391 80.0439ZM205.184 85.1367C204.181 85.1367 203.365 84.8086 202.736 84.1523C202.107 83.4915 201.793 82.6097 201.793 81.5068V81.2744C201.793 80.5407 201.932 79.8867 202.21 79.3125C202.493 78.7337 202.884 78.2826 203.386 77.959C203.892 77.6309 204.438 77.4668 205.026 77.4668C205.988 77.4668 206.735 77.7835 207.269 78.417C207.802 79.0505 208.068 79.9574 208.068 81.1377V81.6641H203.058C203.076 82.3932 203.288 82.9834 203.693 83.4346C204.104 83.8812 204.623 84.1045 205.252 84.1045C205.699 84.1045 206.077 84.0133 206.387 83.8311C206.697 83.6488 206.968 83.4072 207.2 83.1064L207.973 83.708C207.353 84.6605 206.423 85.1367 205.184 85.1367ZM205.026 78.5059C204.516 78.5059 204.088 78.6927 203.741 79.0664C203.395 79.4355 203.181 79.9551 203.099 80.625H206.804V80.5293C206.767 79.8867 206.594 79.39 206.284 79.0391C205.974 78.6836 205.555 78.5059 205.026 78.5059ZM213.845 83.0381C213.845 82.6963 213.715 82.432 213.455 82.2451C213.2 82.0537 212.751 81.8896 212.108 81.7529C211.47 81.6162 210.962 81.4521 210.584 81.2607C210.21 81.0693 209.932 80.8415 209.75 80.5771C209.572 80.3128 209.483 79.9984 209.483 79.6338C209.483 79.0277 209.739 78.515 210.249 78.0957C210.764 77.6764 211.42 77.4668 212.218 77.4668C213.056 77.4668 213.735 77.6833 214.255 78.1162C214.779 78.5492 215.041 79.1029 215.041 79.7773H213.77C213.77 79.431 213.621 79.1325 213.325 78.8818C213.034 78.6312 212.664 78.5059 212.218 78.5059C211.757 78.5059 211.397 78.6061 211.138 78.8066C210.878 79.0072 210.748 79.2692 210.748 79.5928C210.748 79.8981 210.869 80.1283 211.11 80.2832C211.352 80.4382 211.787 80.5863 212.416 80.7275C213.049 80.8688 213.562 81.0374 213.954 81.2334C214.346 81.4294 214.635 81.6663 214.822 81.9443C215.014 82.2178 215.109 82.5527 215.109 82.9492C215.109 83.61 214.845 84.141 214.316 84.542C213.788 84.9385 213.102 85.1367 212.259 85.1367C211.666 85.1367 211.142 85.0319 210.687 84.8223C210.231 84.6126 209.873 84.321 209.613 83.9473C209.358 83.569 209.23 83.1611 209.23 82.7236H210.495C210.518 83.1475 210.687 83.4847 211.001 83.7354C211.32 83.9814 211.739 84.1045 212.259 84.1045C212.737 84.1045 213.12 84.0088 213.407 83.8174C213.699 83.6214 213.845 83.3617 213.845 83.0381Z" fill="white"/>
</g>
</g>
<defs>
<clipPath id="clip0_9621_354">
<rect width="208" height="44" fill="white" transform="translate(16 12)"/>
</clipPath>
<clipPath id="clip1_9621_354">
<rect width="81" height="24" fill="white" transform="translate(143 68)"/>
</clipPath>
<clipPath id="clip2_9621_354">
<rect width="18" height="22" fill="white" transform="translate(151 69)"/>
</clipPath>
<clipPath id="clip3_9621_354">
<rect width="23" height="22" fill="white" transform="translate(193 69)"/>
</clipPath>
</defs>
</svg>
